<svg width="100" height="100" viewBox="0 0 100 100" fill="none" xmlns="http://www.w3.org/2000/svg">
<path d="M85.15 20.52C73.36 12.17 62.86 20.75 60.15 24.41C58.5858 26.5682 57.2455 28.8801 56.15 31.31L56 31.22C49.22 22.63 47.24 14.07 50.27 6.38002L48.41 5.65002C46.02 11.7 45.27 21.38 55.1 33.3L55.7 34C65.48 44.45 47.31 63.08 46.18 64.21C45.54 64.65 40.18 68.07 34.84 61.75C32.836 59.289 30.2388 57.3782 27.2929 56.1973C24.3469 55.0165 21.149 54.6045 18 55C15.5807 55.3237 13.2896 56.28 11.3582 57.7724C9.42682 59.2649 7.92347 61.2406 7 63.5C4.38 69.86 4.29 76 6.74 81.31C9.38 87 15 91.41 22.93 94L23.99 94.35L26.44 82.48L25.64 82.18C23.8196 81.5159 22.2103 80.3763 20.9793 78.8798C19.7483 77.3832 18.9405 75.5843 18.64 73.67C18.5105 72.8174 18.6304 71.9455 18.9853 71.1594C19.3401 70.3734 19.9148 69.7068 20.64 69.24C21.0648 68.9244 21.5616 68.7197 22.0855 68.6447C22.6093 68.5696 23.1437 68.6264 23.64 68.81C25.93 69.81 27.34 73.94 27.64 75.46V75.61C27.71 75.77 34.31 91.7 50.25 90.61C74 89 83.55 71.48 88.71 62.06C89.14 61.28 89.53 60.56 89.9 59.92C97 47.46 97.71 29.42 85.15 20.52ZM88.15 58.93C87.78 59.59 87.38 60.31 86.95 61.1C81.95 70.18 72.72 87.1 50.22 88.63C36.09 89.63 30.13 76.16 29.63 74.94C29.44 74.14 27.95 68.48 24.45 66.94C23.6654 66.626 22.8152 66.5119 21.9756 66.6079C21.136 66.7039 20.3334 67.007 19.64 67.49C18.5787 68.1368 17.7295 69.0794 17.1965 70.2022C16.6636 71.3249 16.4701 72.5789 16.64 73.81C17.01 77.87 20.04 81.81 24.13 83.68L22.47 91.68C15.54 89.21 10.86 85.42 8.54 80.4C6.33 75.63 6.43 70.03 8.82 64.19C9.62857 62.2697 10.9268 60.595 12.5851 59.3333C14.2433 58.0717 16.2035 57.2671 18.27 57C19.0141 56.8809 19.7664 56.8207 20.52 56.82C22.9786 56.8669 25.3982 57.4433 27.614 58.5097C29.8297 59.5762 31.7896 61.1077 33.36 63C40.13 71 47.36 65.79 47.47 65.73L47.58 65.64C48.44 64.8 68.16 45.14 57.58 32.97C58.6956 30.3585 60.0939 27.877 61.75 25.57C61.84 25.44 71.53 13.26 84.03 22.11C95.6 30.37 94.8 47.23 88.16 58.93H88.15Z" fill="#FEFFFF"/>
</svg>
