<svg width="100" height="100" viewBox="0 0 100 100" fill="none" xmlns="http://www.w3.org/2000/svg">
<path d="M87.91 29.64C89.49 27.32 88.71 24.58 87.79 22.95C89.63 20.53 88.64 17.75 87.62 16.26C88.4 12.61 88.15 11.12 87.93 10.55C87.5221 9.08138 86.6752 7.77246 85.5029 6.79845C84.3305 5.82444 82.8885 5.23184 81.37 5.09997C76.81 4.50997 74.23 6.62997 73.18 8.31997C71.905 8.03942 70.5844 8.03805 69.3088 8.31596C68.0332 8.59387 66.8328 9.14447 65.79 9.92997C64.7903 9.59007 63.7341 9.44743 62.68 9.50997C61.3402 9.78442 60.0813 10.3626 59 11.2C57.7708 10.6378 56.4411 10.3283 55.09 10.29C52.7524 10.2107 50.4791 11.0632 48.77 12.66C47.3574 11.9287 45.7629 11.623 44.18 11.78C42.5825 11.917 41.0166 12.3051 39.54 12.93C38.5689 12.066 37.4019 11.4516 36.14 11.14C34.477 10.8101 32.7578 10.903 31.14 11.41C30.1731 10.475 28.9637 9.82949 27.6487 9.5467C26.3337 9.26391 24.9658 9.35511 23.7 9.80997C21.6688 9.34895 19.5395 9.63285 17.7 10.61C14.58 12.17 14.7 16.06 14.85 17.61C11.71 18.91 12.9 21.66 13.04 22.78C12.4071 23.2231 11.8768 23.7971 11.4852 24.4631C11.0935 25.1291 10.8496 25.8715 10.77 26.64C10.5861 27.5682 10.6521 28.5287 10.9613 29.4231C11.2706 30.3175 11.812 31.1136 12.53 31.73C11.5162 32.6724 10.8919 33.9603 10.78 35.34C10.6395 36.2615 10.696 37.2025 10.946 38.1006C11.1959 38.9987 11.6336 39.8335 12.23 40.55C12.3615 40.692 12.5018 40.8256 12.65 40.95C12.4267 41.1024 12.219 41.2766 12.03 41.47C11.5015 42.0704 11.1155 42.7825 10.9007 43.5531C10.686 44.3236 10.6482 45.1327 10.79 45.92C10.9469 47.1319 11.4338 48.2773 12.1973 49.2314C12.9609 50.1854 13.972 50.9114 15.12 51.33C14.43 52.75 13.47 55.25 14.12 57.24C14.87 59.53 17.33 60.95 18.85 61.64C18.207 62.8566 17.9005 64.2228 17.962 65.5976C18.0235 66.9723 18.4509 68.3057 19.2 69.46C20.85 72.23 23.66 73.29 27.02 72.46C28.32 75.91 33.79 76.87 34.02 76.91L34.66 77.02L35.02 76.47C36.37 74.41 34.51 70.4 33.67 68.81C34.7282 67.9179 35.4982 66.7321 35.8827 65.4025C36.2671 64.0729 36.2488 62.6592 35.83 61.34C34.83 58.63 33.37 57.45 31.74 57.05C32.2004 56.2855 32.4936 55.4323 32.6005 54.5464C32.7074 53.6604 32.6254 52.7619 32.36 51.91C31.74 49.49 28.98 48.14 27.47 47.56C27.9571 46.113 28.1376 44.5805 28 43.06C27.7969 42.2945 27.4308 41.5819 26.9269 40.9709C26.4229 40.3599 25.7929 39.865 25.08 39.52C25.8359 38.1531 26.0498 36.5518 25.6793 35.0344C25.3087 33.5171 24.3808 32.1946 23.08 31.33C24.0278 29.6815 24.3808 27.7576 24.08 25.88C25.0024 24.8009 25.4939 23.4192 25.46 22C26.7397 21.9317 27.9997 21.6547 29.19 21.18C30.2533 22.3942 31.7427 23.1532 33.35 23.3C35.2255 23.3598 37.0658 22.7817 38.57 21.66C39.179 22.3648 39.9225 22.9411 40.7571 23.3549C41.5916 23.7687 42.5003 24.0118 43.43 24.07C45.5952 24.0365 47.6758 23.2234 49.29 21.78C50.9347 22.9831 52.9797 23.506 55 23.24C56.8379 22.8778 58.5045 21.918 59.74 20.51C60.9224 21.387 62.4021 21.7641 63.86 21.56C65.1528 21.3037 66.322 20.6204 67.18 19.62C67.9816 20.247 68.9116 20.6894 69.9038 20.9159C70.8959 21.1423 71.9258 21.1471 72.92 20.93C73.6453 20.7298 74.3247 20.3901 74.92 19.93C74.9613 20.6097 75.1373 21.2745 75.4378 21.8856C75.7382 22.4967 76.157 23.0421 76.67 23.49C76.2635 24.4877 76.0798 25.5621 76.1316 26.6381C76.1834 27.7142 76.4695 28.766 76.97 29.72C76.4349 30.2486 76.0148 30.8821 75.736 31.5808C75.4572 32.2794 75.3258 33.0281 75.35 33.78C75.5398 35.4621 76.3276 37.0201 77.57 38.17C76.3564 39.3023 75.6078 40.8459 75.47 42.5C75.4164 44.1536 75.9045 45.7794 76.86 47.13C75.5804 47.981 74.6585 49.2731 74.27 50.76C73.9048 52.5898 74.1691 54.4894 75.02 56.15C74.06 56.6575 73.2886 57.4603 72.82 58.44C72.248 59.7846 72.1151 61.2754 72.44 62.7C71.6459 63.0321 70.9353 63.5362 70.3595 64.176C69.7837 64.8158 69.3569 65.5754 69.11 66.4C67.5294 66.3635 65.9735 66.7962 64.6387 67.6434C63.3038 68.4906 62.2499 69.7143 61.61 71.16C60.1603 71.0834 58.711 71.3187 57.36 71.85H57.28C55.28 70.77 48.28 67.85 43.28 74.94C42.0803 76.6501 41.4764 78.7073 41.5613 80.7945C41.6463 82.8817 42.4153 84.883 43.75 86.49C44.4729 87.468 44.9092 88.628 45.01 89.84C45.08 91.94 45.67 93.45 46.76 94.32C47.4058 94.7985 48.1972 95.0388 49 95H49.31C49.6187 95.0201 49.9242 94.9277 50.17 94.74C51.1 94.04 51.54 90.87 51.48 85.33C53.58 85.84 57.48 86.33 59.36 83.44V83.35H59.88C61.2122 83.396 62.5273 83.0389 63.6532 82.3252C64.7791 81.6115 65.6632 80.5745 66.19 79.35C68.0894 79.781 70.0811 79.4924 71.78 78.54C73.89 77.46 74.46 75.13 74.61 73.73C77.05 73.81 78.9 73.15 80.11 71.73C81.71 69.89 81.66 67.31 81.48 65.92C82.9237 65.5 84.1424 64.5257 84.87 63.21C85.6236 61.5495 85.7375 59.6693 85.19 57.93C86.3549 56.5744 87.1257 54.9253 87.4184 53.1621C87.7111 51.3989 87.5145 49.5892 86.85 47.93C87.7738 46.6791 88.4152 45.2428 88.73 43.72C88.9581 41.8283 88.58 39.913 87.65 38.25C88.4806 37.0504 89.0433 35.6862 89.3 34.25C89.3493 32.6032 88.8614 30.9851 87.91 29.64ZM57.13 82.94C55.01 84.62 50.87 83.05 50.82 83.03L49.44 82.52V83.99C49.52 87.57 49.34 91.8 48.94 92.99C48.6005 92.9852 48.2726 92.8653 48.01 92.65C47.6506 92.2426 47.3769 91.767 47.2051 91.2516C47.0333 90.7362 46.967 90.1915 47.01 89.65C46.8846 87.9839 46.2726 86.3913 45.25 85.07C44.2264 83.7916 43.6481 82.214 43.603 80.5769C43.5578 78.9399 44.0484 77.3328 45 76C45.6989 74.8602 46.6756 73.9165 47.8387 73.2571C49.0017 72.5977 50.3131 72.2443 51.65 72.23C52.8532 72.2447 54.0432 72.4821 55.16 72.93L57.24 74.08C58.7409 73.2803 60.4529 72.9659 62.14 73.18L63.25 72.5C63.6943 71.1592 64.5929 70.0157 65.7907 69.2671C66.9885 68.5184 68.4101 68.2118 69.81 68.4L70.91 67.55C71.0405 66.7787 71.3942 66.0626 71.9274 65.4903C72.4606 64.918 73.1499 64.5146 73.91 64.33L74.65 63C74.2159 61.7842 74.2159 60.4557 74.65 59.24C74.8633 58.8227 75.161 58.4543 75.5242 58.1582C75.8875 57.8621 76.3083 57.6447 76.76 57.52L77.3 56C77.3 56 75.68 53.48 76.3 51.17C76.4903 50.5129 76.8202 49.9047 77.2672 49.3869C77.7142 48.8692 78.2678 48.454 78.89 48.17L79.14 46.6C78.1259 45.478 77.56 44.0223 77.55 42.51C77.6413 41.774 77.8872 41.0657 78.2715 40.4315C78.6558 39.7973 79.1699 39.2515 79.78 38.83V37.25C79.78 37.25 77.57 35.59 77.47 33.55C77.4878 32.9659 77.6362 32.3932 77.9045 31.874C78.1727 31.3549 78.5539 30.9024 79.02 30.55L79.16 29.23C78.6174 28.3955 78.3104 27.4299 78.2717 26.4353C78.2329 25.4407 78.4639 24.4541 78.94 23.58L78.46 22.16C78.46 22.16 75.92 21.03 77.59 16.46L75.72 15.75C75.72 15.75 74.57 18.43 72.41 19C71.03 19.37 69.41 18.85 67.62 17.46L66.15 17.73C65.5503 18.6633 64.6166 19.3323 63.54 19.6C62.9338 19.6454 62.3249 19.5589 61.7552 19.3466C61.1856 19.1343 60.6686 18.8011 60.24 18.37L58.77 18.58C57.7793 19.9443 56.3252 20.9007 54.68 21.27C53.8036 21.3633 52.9174 21.2737 52.0774 21.0069C51.2374 20.7401 50.462 20.3019 49.8 19.72L48.47 19.83C48.47 19.83 46.2 22.22 43.47 22.09C42.6677 22.005 41.8937 21.7452 41.2026 21.3288C40.5115 20.9124 39.9201 20.3496 39.47 19.68L38 19.57C38 19.57 35.82 21.57 33.48 21.32C32.8255 21.2381 32.1961 21.0172 31.6339 20.6723C31.0716 20.3274 30.5896 19.8663 30.22 19.32L29 19.11C27.5575 19.7956 25.9639 20.1019 24.37 20L23.37 21.37C23.5386 22.0074 23.5279 22.6789 23.3391 23.3106C23.1503 23.9423 22.7907 24.5096 22.3 24.95L22.1 25.95C22.1 26.04 22.83 28.07 20.89 31.1L21.3 32.54C22.4074 33.1225 23.2591 34.0953 23.69 35.27C23.8528 35.9837 23.8639 36.7237 23.7227 37.442C23.5814 38.1603 23.2909 38.841 22.87 39.44L23.38 40.88C24 41.11 25.82 42.07 26.04 43.38C26.0742 44.8945 25.8056 46.4006 25.25 47.81L25.93 49.12C27.02 49.41 29.93 50.55 30.4 52.37C31.28 55.79 29.08 56.93 28.84 57.04L29.48 59C29.83 58.92 32.58 58.6 33.99 62.22C33.99 62.22 35.2 65.22 31.78 67.78L31.23 68.2L31.42 68.86L31.56 69.21C32.6129 70.894 33.2694 72.7951 33.48 74.77C31.99 74.37 29 73.33 28.71 71.3V71.06L28 70L27.3 70.24C25.3 70.92 22.86 70.92 21.2 68.13C18.95 64.36 21 61.88 21.1 61.77L20.66 60.14C19.58 59.8 16.66 58.5 15.99 56.54C15.46 54.92 16.81 52.14 17.38 51.21L16.75 49.72C16.75 49.72 13.07 48.84 12.75 45.64C12.6481 45.1464 12.6553 44.6364 12.771 44.1459C12.8867 43.6553 13.1082 43.196 13.42 42.8C14.0064 42.2743 14.7729 41.9949 15.56 42.02L15.64 40.02C14.8821 39.9647 14.1707 39.6339 13.64 39.09C13.249 38.5751 12.9675 37.9857 12.8127 37.358C12.6579 36.7303 12.6332 36.0776 12.74 35.44C12.74 35.44 13.1 32.95 14.39 32.86L14.72 30.86C13.9511 30.5585 13.3211 29.9828 12.9518 29.2441C12.5824 28.5054 12.4998 27.656 12.72 26.86C12.8523 25.558 13.483 24.3576 14.48 23.51L14.94 22.43C14.732 22.0125 14.6099 21.5576 14.5807 21.0922C14.5515 20.6267 14.6158 20.1601 14.77 19.72C14.9545 19.3625 15.2194 19.0528 15.5439 18.815C15.8684 18.5773 16.2436 18.4181 16.64 18.35L16.88 17.68C16.88 17.68 16.11 13.52 18.57 12.29C20.032 11.465 21.7602 11.2494 23.38 11.69H24.18C25.2104 11.2691 26.3484 11.1886 27.4278 11.4602C28.5073 11.7319 29.4716 12.3415 30.18 13.2L31.44 13.38C31.44 13.38 32.87 12.57 35.82 13.04C36.8954 13.3804 37.8752 13.9697 38.68 14.76L39.82 14.93C41.2398 14.2593 42.7663 13.843 44.33 13.7C45.7107 13.4973 47.1166 13.83 48.26 14.63L49.76 14.48C50.403 13.7327 51.2115 13.1456 52.1211 12.7654C53.0307 12.3853 54.0165 12.2225 55 12.29C56.2369 12.3334 57.4476 12.6583 58.54 13.24L59.69 13.15C60.6248 12.3578 61.7303 11.7931 62.92 11.5C63.8493 11.492 64.7719 11.6582 65.64 11.99L66.64 11.77C67.5534 10.9894 68.6522 10.457 69.8309 10.224C71.0096 9.99109 72.2284 10.0655 73.37 10.44L74.59 9.82997C74.59 9.82997 76 6.41997 81.12 7.07997C82.2469 7.16477 83.3205 7.59403 84.1952 8.30955C85.07 9.02506 85.7035 9.99224 86.01 11.08V11.15L86.09 11.29C86.09 11.29 86.46 12.41 85.59 16.29L85.79 17.14C86.02 17.43 88 20.03 85.86 22.14L85.76 23.43C85.85 23.56 88.04 26.65 85.95 28.92V30.22C86.41 30.79 87.57 32.59 87.43 33.99C87.1456 35.2899 86.5864 36.514 85.79 37.58V38.71C85.79 38.71 87.33 41.17 86.93 43.32C86.6009 44.7172 85.9388 46.014 85 47.1L84.85 48.2C84.85 48.2 87.23 53.2 83.41 56.94L83.18 58C83.18 58 84.1 60.45 83.18 62.24C82.8615 62.7766 82.4266 63.2348 81.9074 63.581C81.3881 63.9271 80.7979 64.1523 80.18 64.24L79.43 65.46C79.43 65.46 80.19 68.67 78.65 70.46C77.73 71.52 76.11 71.93 73.82 71.68L72.71 72.68C72.71 72.68 72.82 75.75 70.92 76.73C68.09 78.19 66.21 77.21 66.14 77.17L64.67 77.81C64.57 78.25 63.58 81.81 59.11 81.31H59.05C58.7463 81.2366 58.4487 81.1397 58.16 81.02C58.019 81.7495 57.6598 82.419 57.13 82.94Z" fill="#FEFFFF"/>
</svg>
